# xmcd CD database file
#
# Track frame offsets:
#	150
#	24167
#	51900
#	105885
#	119487
#	132065
#	149567
#
# Disc length: 2648 seconds
#
# Revision: 2
# Processed by: cddbd v1.4PL0 Copyright (c) Steve Scherf et al.
# Submitted via: CDex 1.50beta10
#
DISCID=580a5607
DTITLE=Jaco Pastorius - Word Of Mouth
DYEAR=1981
DGENRE=Jazz
TTITLE0=Crisis
TTITLE1=3 Views Of A Secret
TTITLE2=Liberty  City
TTITLE3=Chromatic Fantasy
TTITLE4=Blackbird
TTITLE5=Word Of Mouth
TTITLE6=John And Mary
EXTD=YEAR: 1981
EXTT0=
EXTT1=
EXTT2=
EXTT3=
EXTT4=
EXTT5=
EXTT6=
PLAYORDER=
